<svg width="1479" height="2323" viewBox="0 0 1479 2323" fill="none" xmlns="http://www.w3.org/2000/svg">
<g clip-path="url(#clip0_44_271)">
<rect width="1479" height="2323" fill="url(#paint0_linear_44_271)"/>
<path d="M592.806 239.809L665.604 2.44038L738.194 239.809L700.033 279.856C692.547 287.712 687.776 297.762 686.423 308.529L665.587 474.259L644.852 308.62C643.497 297.796 638.69 287.697 631.143 279.821L592.806 239.809Z" stroke="url(#paint1_linear_44_271)" stroke-opacity="0.35" stroke-width="1.42921"/>
<path d="M740.806 239.809L813.604 2.44038L886.194 239.809L848.033 279.856C840.547 287.712 835.776 297.762 834.423 308.529L813.587 474.259L792.852 308.62C791.497 297.796 786.69 287.697 779.143 279.821L740.806 239.809Z" stroke="url(#paint2_linear_44_271)" stroke-opacity="0.35" stroke-width="1.42921"/>
<path d="M666.806 479.809L739.604 242.44L812.194 479.809L774.033 519.856C766.547 527.712 761.776 537.762 760.423 548.529L739.587 714.259L718.852 548.62C717.497 537.796 712.69 527.697 705.143 519.821L666.806 479.809Z" stroke="url(#paint3_linear_44_271)" stroke-opacity="0.35" stroke-width="1.42921"/>
<path d="M814.806 479.809L887.604 242.44L960.194 479.809L922.033 519.856C914.547 527.712 909.776 537.762 908.423 548.529L887.587 714.259L866.852 548.62C865.497 537.796 860.69 527.697 853.143 519.821L814.806 479.809Z" stroke="url(#paint4_linear_44_271)" stroke-opacity="0.35" stroke-width="1.42921"/>
<path d="M296.806 239.809L369.604 2.44038L442.194 239.809L404.033 279.856C396.547 287.712 391.776 297.762 390.423 308.529L369.587 474.259L348.852 308.62C347.497 297.796 342.69 287.697 335.143 279.821L296.806 239.809Z" stroke="url(#paint5_linear_44_271)" stroke-opacity="0.35" stroke-width="1.42921"/>
<path d="M444.806 239.809L517.604 2.44038L590.194 239.809L552.033 279.856C544.547 287.712 539.776 297.762 538.423 308.529L517.587 474.259L496.852 308.62C495.497 297.796 490.69 287.697 483.143 279.821L444.806 239.809Z" stroke="url(#paint6_linear_44_271)" stroke-opacity="0.35" stroke-width="1.42921"/>
<path d="M370.806 479.809L443.604 242.44L516.194 479.809L478.033 519.856C470.547 527.712 465.776 537.762 464.423 548.529L443.587 714.259L422.852 548.62C421.497 537.796 416.69 527.697 409.143 519.821L370.806 479.809Z" stroke="url(#paint7_linear_44_271)" stroke-opacity="0.35" stroke-width="1.42921"/>
<path d="M518.806 479.809L591.604 242.44L664.194 479.809L626.033 519.856C618.547 527.712 613.776 537.762 612.423 548.529L591.587 714.259L570.852 548.62C569.497 537.796 564.69 527.697 557.143 519.821L518.806 479.809Z" stroke="url(#paint8_linear_44_271)" stroke-opacity="0.35" stroke-width="1.42921"/>
<path d="M0.806191 239.809L73.6035 2.44038L146.194 239.809L108.033 279.856C100.547 287.712 95.7764 297.762 94.4227 308.529L73.587 474.259L52.8518 308.62C51.4969 297.796 46.6896 287.697 39.1429 279.821L0.806191 239.809Z" stroke="url(#paint9_linear_44_271)" stroke-opacity="0.35" stroke-width="1.42921"/>
<path d="M-73.1938 479.809L-0.396477 242.44L72.1945 479.809L34.0329 519.856C26.5466 527.712 21.7764 537.762 20.4227 548.529L-0.413025 714.259L-21.1482 548.62C-22.5031 537.796 -27.3104 527.697 -34.8571 519.821L-73.1938 479.809Z" stroke="url(#paint10_linear_44_271)" stroke-opacity="0.35" stroke-width="1.42921"/>
<path d="M148.806 239.809L221.604 2.44038L294.194 239.809L256.033 279.856C248.547 287.712 243.776 297.762 242.423 308.529L221.587 474.259L200.852 308.62C199.497 297.796 194.69 287.697 187.143 279.821L148.806 239.809Z" stroke="url(#paint11_linear_44_271)" stroke-opacity="0.35" stroke-width="1.42921"/>
<path d="M74.8062 479.809L147.604 242.44L220.194 479.809L182.033 519.856C174.547 527.712 169.776 537.762 168.423 548.529L147.587 714.259L126.852 548.62C125.497 537.796 120.69 527.697 113.143 519.821L74.8062 479.809Z" stroke="url(#paint12_linear_44_271)" stroke-opacity="0.35" stroke-width="1.42921"/>
<path d="M222.806 479.809L295.604 242.44L368.194 479.809L330.033 519.856C322.547 527.712 317.776 537.762 316.423 548.529L295.587 714.259L274.852 548.62C273.497 537.796 268.69 527.697 261.143 519.821L222.806 479.809Z" stroke="url(#paint13_linear_44_271)" stroke-opacity="0.35" stroke-width="1.42921"/>
<path d="M1184.81 239.809L1257.6 2.44038L1330.19 239.809L1292.03 279.856C1284.55 287.712 1279.78 297.762 1278.42 308.529L1257.59 474.259L1236.85 308.62C1235.5 297.796 1230.69 287.697 1223.14 279.821L1184.81 239.809Z" stroke="url(#paint14_linear_44_271)" stroke-opacity="0.35" stroke-width="1.42921"/>
<path d="M1332.81 239.809L1405.6 2.44038L1478.19 239.809L1440.03 279.856C1432.55 287.712 1427.78 297.762 1426.42 308.529L1405.59 474.259L1384.85 308.62C1383.5 297.796 1378.69 287.697 1371.14 279.821L1332.81 239.809Z" stroke="url(#paint15_linear_44_271)" stroke-opacity="0.35" stroke-width="1.42921"/>
<path d="M1258.81 479.809L1331.6 242.44L1404.19 479.809L1366.03 519.856C1358.55 527.712 1353.78 537.762 1352.42 548.529L1331.59 714.259L1310.85 548.62C1309.5 537.796 1304.69 527.697 1297.14 519.821L1258.81 479.809Z" stroke="url(#paint16_linear_44_271)" stroke-opacity="0.35" stroke-width="1.42921"/>
<path d="M888.806 239.809L961.604 2.44038L1034.19 239.809L996.033 279.856C988.547 287.712 983.776 297.762 982.423 308.529L961.587 474.259L940.852 308.62C939.497 297.796 934.69 287.697 927.143 279.821L888.806 239.809Z" stroke="url(#paint17_linear_44_271)" stroke-opacity="0.35" stroke-width="1.42921"/>
<path d="M1036.81 239.809L1109.6 2.44038L1182.19 239.809L1144.03 279.856C1136.55 287.712 1131.78 297.762 1130.42 308.529L1109.59 474.259L1088.85 308.62C1087.5 297.796 1082.69 287.697 1075.14 279.821L1036.81 239.809Z" stroke="url(#paint18_linear_44_271)" stroke-opacity="0.35" stroke-width="1.42921"/>
<path d="M962.806 479.809L1035.6 242.44L1108.19 479.809L1070.03 519.856C1062.55 527.712 1057.78 537.762 1056.42 548.529L1035.59 714.259L1014.85 548.62C1013.5 537.796 1008.69 527.697 1001.14 519.821L962.806 479.809Z" stroke="url(#paint19_linear_44_271)" stroke-opacity="0.35" stroke-width="1.42921"/>
<path d="M1110.81 479.809L1183.6 242.44L1256.19 479.809L1218.03 519.856C1210.55 527.712 1205.78 537.762 1204.42 548.529L1183.59 714.259L1162.85 548.62C1161.5 537.796 1156.69 527.697 1149.14 519.821L1110.81 479.809Z" stroke="url(#paint20_linear_44_271)" stroke-opacity="0.35" stroke-width="1.42921"/>
<path d="M1406.81 479.809L1479.6 242.44L1552.19 479.809L1514.03 519.856C1506.55 527.712 1501.78 537.762 1500.42 548.529L1479.59 714.259L1458.85 548.62C1457.5 537.796 1452.69 527.697 1445.14 519.821L1406.81 479.809Z" stroke="url(#paint21_linear_44_271)" stroke-opacity="0.35" stroke-width="1.42921"/>
<path d="M592.806 719.809L665.604 482.44L738.194 719.809L700.033 759.856C692.547 767.712 687.776 777.762 686.423 788.529L665.587 954.259L644.852 788.62C643.497 777.796 638.69 767.697 631.143 759.821L592.806 719.809Z" stroke="url(#paint22_linear_44_271)" stroke-opacity="0.35" stroke-width="1.42921"/>
<path d="M740.806 719.809L813.604 482.44L886.194 719.809L848.033 759.856C840.547 767.712 835.776 777.762 834.423 788.529L813.587 954.259L792.852 788.62C791.497 777.796 786.69 767.697 779.143 759.821L740.806 719.809Z" stroke="url(#paint23_linear_44_271)" stroke-opacity="0.35" stroke-width="1.42921"/>
<path d="M296.806 719.809L369.604 482.44L442.194 719.809L404.033 759.856C396.547 767.712 391.776 777.762 390.423 788.529L369.587 954.259L348.852 788.62C347.497 777.796 342.69 767.697 335.143 759.821L296.806 719.809Z" stroke="url(#paint24_linear_44_271)" stroke-opacity="0.35" stroke-width="1.42921"/>
<path d="M444.806 719.809L517.604 482.44L590.194 719.809L552.033 759.856C544.547 767.712 539.776 777.762 538.423 788.529L517.587 954.259L496.852 788.62C495.497 777.796 490.69 767.697 483.143 759.821L444.806 719.809Z" stroke="url(#paint25_linear_44_271)" stroke-opacity="0.35" stroke-width="1.42921"/>
<path d="M0.806191 719.809L73.6035 482.44L146.194 719.809L108.033 759.856C100.547 767.712 95.7764 777.762 94.4227 788.529L73.587 954.259L52.8518 788.62C51.4969 777.796 46.6896 767.697 39.1429 759.821L0.806191 719.809Z" stroke="url(#paint26_linear_44_271)" stroke-opacity="0.35" stroke-width="1.42921"/>
<path d="M148.806 719.809L221.604 482.44L294.194 719.809L256.033 759.856C248.547 767.712 243.776 777.762 242.423 788.529L221.587 954.259L200.852 788.62C199.497 777.796 194.69 767.697 187.143 759.821L148.806 719.809Z" stroke="url(#paint27_linear_44_271)" stroke-opacity="0.35" stroke-width="1.42921"/>
<path d="M1184.81 719.809L1257.6 482.44L1330.19 719.809L1292.03 759.856C1284.55 767.712 1279.78 777.762 1278.42 788.529L1257.59 954.259L1236.85 788.62C1235.5 777.796 1230.69 767.697 1223.14 759.821L1184.81 719.809Z" stroke="url(#paint28_linear_44_271)" stroke-opacity="0.35" stroke-width="1.42921"/>
<path d="M1332.81 719.809L1405.6 482.44L1478.19 719.809L1440.03 759.856C1432.55 767.712 1427.78 777.762 1426.42 788.529L1405.59 954.259L1384.85 788.62C1383.5 777.796 1378.69 767.697 1371.14 759.821L1332.81 719.809Z" stroke="url(#paint29_linear_44_271)" stroke-opacity="0.35" stroke-width="1.42921"/>
<path d="M888.806 719.809L961.604 482.44L1034.19 719.809L996.033 759.856C988.547 767.712 983.776 777.762 982.423 788.529L961.587 954.259L940.852 788.62C939.497 777.796 934.69 767.697 927.143 759.821L888.806 719.809Z" stroke="url(#paint30_linear_44_271)" stroke-opacity="0.35" stroke-width="1.42921"/>
<path d="M1036.81 719.809L1109.6 482.44L1182.19 719.809L1144.03 759.856C1136.55 767.712 1131.78 777.762 1130.42 788.529L1109.59 954.259L1088.85 788.62C1087.5 777.796 1082.69 767.697 1075.14 759.821L1036.81 719.809Z" stroke="url(#paint31_linear_44_271)" stroke-opacity="0.35" stroke-width="1.42921"/>
<path d="M886.194 2083.19L813.396 2320.56L740.806 2083.19L778.967 2043.14C786.453 2035.29 791.224 2025.24 792.577 2014.47L813.413 1848.74L834.148 2014.38C835.503 2025.2 840.31 2035.3 847.857 2043.18L886.194 2083.19Z" stroke="url(#paint32_linear_44_271)" stroke-opacity="0.35" stroke-width="1.42921"/>
<path d="M738.194 2083.19L665.396 2320.56L592.806 2083.19L630.967 2043.14C638.453 2035.29 643.224 2025.24 644.577 2014.47L665.413 1848.74L686.148 2014.38C687.503 2025.2 692.31 2035.3 699.857 2043.18L738.194 2083.19Z" stroke="url(#paint33_linear_44_271)" stroke-opacity="0.35" stroke-width="1.42921"/>
<path d="M812.194 1843.19L739.396 2080.56L666.806 1843.19L704.967 1803.14C712.453 1795.29 717.224 1785.24 718.577 1774.47L739.413 1608.74L760.148 1774.38C761.503 1785.2 766.31 1795.3 773.857 1803.18L812.194 1843.19Z" stroke="url(#paint34_linear_44_271)" stroke-opacity="0.35" stroke-width="1.42921"/>
<path d="M664.194 1843.19L591.396 2080.56L518.806 1843.19L556.967 1803.14C564.453 1795.29 569.224 1785.24 570.577 1774.47L591.413 1608.74L612.148 1774.38C613.503 1785.2 618.31 1795.3 625.857 1803.18L664.194 1843.19Z" stroke="url(#paint35_linear_44_271)" stroke-opacity="0.35" stroke-width="1.42921"/>
<path d="M1182.19 2083.19L1109.4 2320.56L1036.81 2083.19L1074.97 2043.14C1082.45 2035.29 1087.22 2025.24 1088.58 2014.47L1109.41 1848.74L1130.15 2014.38C1131.5 2025.2 1136.31 2035.3 1143.86 2043.18L1182.19 2083.19Z" stroke="url(#paint36_linear_44_271)" stroke-opacity="0.35" stroke-width="1.42921"/>
<path d="M1034.19 2083.19L961.396 2320.56L888.806 2083.19L926.967 2043.14C934.453 2035.29 939.224 2025.24 940.577 2014.47L961.413 1848.74L982.148 2014.38C983.503 2025.2 988.31 2035.3 995.857 2043.18L1034.19 2083.19Z" stroke="url(#paint37_linear_44_271)" stroke-opacity="0.35" stroke-width="1.42921"/>
<path d="M1108.19 1843.19L1035.4 2080.56L962.806 1843.19L1000.97 1803.14C1008.45 1795.29 1013.22 1785.24 1014.58 1774.47L1035.41 1608.74L1056.15 1774.38C1057.5 1785.2 1062.31 1795.3 1069.86 1803.18L1108.19 1843.19Z" stroke="url(#paint38_linear_44_271)" stroke-opacity="0.35" stroke-width="1.42921"/>
<path d="M960.194 1843.19L887.396 2080.56L814.806 1843.19L852.967 1803.14C860.453 1795.29 865.224 1785.24 866.577 1774.47L887.413 1608.74L908.148 1774.38C909.503 1785.2 914.31 1795.3 921.857 1803.18L960.194 1843.19Z" stroke="url(#paint39_linear_44_271)" stroke-opacity="0.35" stroke-width="1.42921"/>
<path d="M1478.19 2083.19L1405.4 2320.56L1332.81 2083.19L1370.97 2043.14C1378.45 2035.29 1383.22 2025.24 1384.58 2014.47L1405.41 1848.74L1426.15 2014.38C1427.5 2025.2 1432.31 2035.3 1439.86 2043.18L1478.19 2083.19Z" stroke="url(#paint40_linear_44_271)" stroke-opacity="0.35" stroke-width="1.42921"/>
<path d="M1330.19 2083.19L1257.4 2320.56L1184.81 2083.19L1222.97 2043.14C1230.45 2035.29 1235.22 2025.24 1236.58 2014.47L1257.41 1848.74L1278.15 2014.38C1279.5 2025.2 1284.31 2035.3 1291.86 2043.18L1330.19 2083.19Z" stroke="url(#paint41_linear_44_271)" stroke-opacity="0.35" stroke-width="1.42921"/>
<path d="M1404.19 1843.19L1331.4 2080.56L1258.81 1843.19L1296.97 1803.14C1304.45 1795.29 1309.22 1785.24 1310.58 1774.47L1331.41 1608.74L1352.15 1774.38C1353.5 1785.2 1358.31 1795.3 1365.86 1803.18L1404.19 1843.19Z" stroke="url(#paint42_linear_44_271)" stroke-opacity="0.35" stroke-width="1.42921"/>
<path d="M1256.19 1843.19L1183.4 2080.56L1110.81 1843.19L1148.97 1803.14C1156.45 1795.29 1161.22 1785.24 1162.58 1774.47L1183.41 1608.74L1204.15 1774.38C1205.5 1785.2 1210.31 1795.3 1217.86 1803.18L1256.19 1843.19Z" stroke="url(#paint43_linear_44_271)" stroke-opacity="0.35" stroke-width="1.42921"/>
<path d="M294.194 2083.19L221.396 2320.56L148.806 2083.19L186.967 2043.14C194.453 2035.29 199.224 2025.24 200.577 2014.47L221.413 1848.74L242.148 2014.38C243.503 2025.2 248.31 2035.3 255.857 2043.18L294.194 2083.19Z" stroke="url(#paint44_linear_44_271)" stroke-opacity="0.35" stroke-width="1.42921"/>
<path d="M146.194 2083.19L73.3965 2320.56L0.805563 2083.19L38.9671 2043.14C46.4534 2035.29 51.2236 2025.24 52.5773 2014.47L73.4131 1848.74L94.1482 2014.38C95.5032 2025.2 100.31 2035.3 107.857 2043.18L146.194 2083.19Z" stroke="url(#paint45_linear_44_271)" stroke-opacity="0.35" stroke-width="1.42921"/>
<path d="M220.194 1843.19L147.396 2080.56L74.8056 1843.19L112.967 1803.14C120.453 1795.29 125.224 1785.24 126.577 1774.47L147.413 1608.74L168.148 1774.38C169.503 1785.2 174.31 1795.3 181.857 1803.18L220.194 1843.19Z" stroke="url(#paint46_linear_44_271)" stroke-opacity="0.35" stroke-width="1.42921"/>
<path d="M72.1938 1843.19L-0.603523 2080.56L-73.1944 1843.19L-35.0329 1803.14C-27.5466 1795.29 -22.7764 1785.24 -21.4227 1774.47L-0.586934 1608.74L20.1482 1774.38C21.5032 1785.2 26.3104 1795.3 33.8571 1803.18L72.1938 1843.19Z" stroke="url(#paint47_linear_44_271)" stroke-opacity="0.35" stroke-width="1.42921"/>
<path d="M590.194 2083.19L517.396 2320.56L444.806 2083.19L482.967 2043.14C490.453 2035.29 495.224 2025.24 496.577 2014.47L517.413 1848.74L538.148 2014.38C539.503 2025.2 544.31 2035.3 551.857 2043.18L590.194 2083.19Z" stroke="url(#paint48_linear_44_271)" stroke-opacity="0.35" stroke-width="1.42921"/>
<path d="M442.194 2083.19L369.396 2320.56L296.806 2083.19L334.967 2043.14C342.453 2035.29 347.224 2025.24 348.577 2014.47L369.413 1848.74L390.148 2014.38C391.503 2025.2 396.31 2035.3 403.857 2043.18L442.194 2083.19Z" stroke="url(#paint49_linear_44_271)" stroke-opacity="0.35" stroke-width="1.42921"/>
<path d="M516.194 1843.19L443.396 2080.56L370.806 1843.19L408.967 1803.14C416.453 1795.29 421.224 1785.24 422.577 1774.47L443.413 1608.74L464.148 1774.38C465.503 1785.2 470.31 1795.3 477.857 1803.18L516.194 1843.19Z" stroke="url(#paint50_linear_44_271)" stroke-opacity="0.35" stroke-width="1.42921"/>
<path d="M368.194 1843.19L295.396 2080.56L222.806 1843.19L260.967 1803.14C268.453 1795.29 273.224 1785.24 274.577 1774.47L295.413 1608.74L316.148 1774.38C317.503 1785.2 322.31 1795.3 329.857 1803.18L368.194 1843.19Z" stroke="url(#paint51_linear_44_271)" stroke-opacity="0.35" stroke-width="1.42921"/>
<path d="M886.194 1603.19L813.396 1840.56L740.806 1603.19L778.967 1563.14C786.453 1555.29 791.224 1545.24 792.577 1534.47L813.413 1368.74L834.148 1534.38C835.503 1545.2 840.31 1555.3 847.857 1563.18L886.194 1603.19Z" stroke="url(#paint52_linear_44_271)" stroke-opacity="0.35" stroke-width="1.42921"/>
<path d="M738.194 1603.19L665.396 1840.56L592.806 1603.19L630.967 1563.14C638.453 1555.29 643.224 1545.24 644.577 1534.47L665.413 1368.74L686.148 1534.38C687.503 1545.2 692.31 1555.3 699.857 1563.18L738.194 1603.19Z" stroke="url(#paint53_linear_44_271)" stroke-opacity="0.35" stroke-width="1.42921"/>
<path d="M1182.19 1603.19L1109.4 1840.56L1036.81 1603.19L1074.97 1563.14C1082.45 1555.29 1087.22 1545.24 1088.58 1534.47L1109.41 1368.74L1130.15 1534.38C1131.5 1545.2 1136.31 1555.3 1143.86 1563.18L1182.19 1603.19Z" stroke="url(#paint54_linear_44_271)" stroke-opacity="0.35" stroke-width="1.42921"/>
<path d="M1034.19 1603.19L961.396 1840.56L888.806 1603.19L926.967 1563.14C934.453 1555.29 939.224 1545.24 940.577 1534.47L961.413 1368.74L982.148 1534.38C983.503 1545.2 988.31 1555.3 995.857 1563.18L1034.19 1603.19Z" stroke="url(#paint55_linear_44_271)" stroke-opacity="0.35" stroke-width="1.42921"/>
<path d="M1478.19 1603.19L1405.4 1840.56L1332.81 1603.19L1370.97 1563.14C1378.45 1555.29 1383.22 1545.24 1384.58 1534.47L1405.41 1368.74L1426.15 1534.38C1427.5 1545.2 1432.31 1555.3 1439.86 1563.18L1478.19 1603.19Z" stroke="url(#paint56_linear_44_271)" stroke-opacity="0.35" stroke-width="1.42921"/>
<path d="M1330.19 1603.19L1257.4 1840.56L1184.81 1603.19L1222.97 1563.14C1230.45 1555.29 1235.22 1545.24 1236.58 1534.47L1257.41 1368.74L1278.15 1534.38C1279.5 1545.2 1284.31 1555.3 1291.86 1563.18L1330.19 1603.19Z" stroke="url(#paint57_linear_44_271)" stroke-opacity="0.35" stroke-width="1.42921"/>
<path d="M294.194 1603.19L221.396 1840.56L148.806 1603.19L186.967 1563.14C194.453 1555.29 199.224 1545.24 200.577 1534.47L221.413 1368.74L242.148 1534.38C243.503 1545.2 248.31 1555.3 255.857 1563.18L294.194 1603.19Z" stroke="url(#paint58_linear_44_271)" stroke-opacity="0.35" stroke-width="1.42921"/>
<path d="M146.194 1603.19L73.3965 1840.56L0.805563 1603.19L38.9671 1563.14C46.4534 1555.29 51.2236 1545.24 52.5773 1534.47L73.4131 1368.74L94.1482 1534.38C95.5032 1545.2 100.31 1555.3 107.857 1563.18L146.194 1603.19Z" stroke="url(#paint59_linear_44_271)" stroke-opacity="0.35" stroke-width="1.42921"/>
<path d="M590.194 1603.19L517.396 1840.56L444.806 1603.19L482.967 1563.14C490.453 1555.29 495.224 1545.24 496.577 1534.47L517.413 1368.74L538.148 1534.38C539.503 1545.2 544.31 1555.3 551.857 1563.18L590.194 1603.19Z" stroke="url(#paint60_linear_44_271)" stroke-opacity="0.35" stroke-width="1.42921"/>
<path d="M442.194 1603.19L369.396 1840.56L296.806 1603.19L334.967 1563.14C342.453 1555.29 347.224 1545.24 348.577 1534.47L369.413 1368.74L390.148 1534.38C391.503 1545.2 396.31 1555.3 403.857 1563.18L442.194 1603.19Z" stroke="url(#paint61_linear_44_271)" stroke-opacity="0.35" stroke-width="1.42921"/>
<path d="M1552.19 1843.19L1479.4 2080.56L1406.81 1843.19L1444.97 1803.14C1452.45 1795.29 1457.22 1785.24 1458.58 1774.47L1479.41 1608.74L1500.15 1774.38C1501.5 1785.2 1506.31 1795.3 1513.86 1803.18L1552.19 1843.19Z" stroke="url(#paint62_linear_44_271)" stroke-opacity="0.2" stroke-width="1.42921"/>
</g>
<defs>
<linearGradient id="paint0_linear_44_271" x1="739.5" y1="0" x2="739.5" y2="2323" gradientUnits="userSpaceOnUse">
<stop/>
<stop offset="0.205" stop-color="#04031E"/>
<stop offset="1"/>
</linearGradient>
<linearGradient id="paint1_linear_44_271" x1="665.604" y1="0" x2="665.604" y2="395.892" gradientUnits="userSpaceOnUse">
<stop stop-color="#00D9FF"/>
<stop offset="1" stop-color="#FF02EE" stop-opacity="0.4"/>
</linearGradient>
<linearGradient id="paint2_linear_44_271" x1="813.604" y1="0" x2="813.604" y2="395.892" gradientUnits="userSpaceOnUse">
<stop stop-color="#00D9FF"/>
<stop offset="1" stop-color="#FF02EE" stop-opacity="0.4"/>
</linearGradient>
<linearGradient id="paint3_linear_44_271" x1="739.604" y1="240" x2="739.604" y2="635.892" gradientUnits="userSpaceOnUse">
<stop stop-color="#00D9FF"/>
<stop offset="1" stop-color="#FF02EE" stop-opacity="0.4"/>
</linearGradient>
<linearGradient id="paint4_linear_44_271" x1="887.604" y1="240" x2="887.604" y2="635.892" gradientUnits="userSpaceOnUse">
<stop stop-color="#00D9FF"/>
<stop offset="1" stop-color="#FF02EE" stop-opacity="0.4"/>
</linearGradient>
<linearGradient id="paint5_linear_44_271" x1="369.604" y1="0" x2="369.604" y2="395.892" gradientUnits="userSpaceOnUse">
<stop stop-color="#00D9FF"/>
<stop offset="1" stop-color="#FF02EE" stop-opacity="0.4"/>
</linearGradient>
<linearGradient id="paint6_linear_44_271" x1="517.604" y1="0" x2="517.604" y2="395.892" gradientUnits="userSpaceOnUse">
<stop stop-color="#00D9FF"/>
<stop offset="1" stop-color="#FF02EE" stop-opacity="0.4"/>
</linearGradient>
<linearGradient id="paint7_linear_44_271" x1="443.604" y1="240" x2="443.604" y2="635.892" gradientUnits="userSpaceOnUse">
<stop stop-color="#00D9FF"/>
<stop offset="1" stop-color="#FF02EE" stop-opacity="0.4"/>
</linearGradient>
<linearGradient id="paint8_linear_44_271" x1="591.604" y1="240" x2="591.604" y2="635.892" gradientUnits="userSpaceOnUse">
<stop stop-color="#00D9FF"/>
<stop offset="1" stop-color="#FF02EE" stop-opacity="0.4"/>
</linearGradient>
<linearGradient id="paint9_linear_44_271" x1="73.6045" y1="0" x2="73.6045" y2="395.892" gradientUnits="userSpaceOnUse">
<stop stop-color="#00D9FF"/>
<stop offset="1" stop-color="#FF02EE" stop-opacity="0.4"/>
</linearGradient>
<linearGradient id="paint10_linear_44_271" x1="-0.395506" y1="240" x2="-0.395506" y2="635.892" gradientUnits="userSpaceOnUse">
<stop stop-color="#00D9FF"/>
<stop offset="1" stop-color="#FF02EE" stop-opacity="0.4"/>
</linearGradient>
<linearGradient id="paint11_linear_44_271" x1="221.604" y1="0" x2="221.604" y2="395.892" gradientUnits="userSpaceOnUse">
<stop stop-color="#00D9FF"/>
<stop offset="1" stop-color="#FF02EE" stop-opacity="0.4"/>
</linearGradient>
<linearGradient id="paint12_linear_44_271" x1="147.604" y1="240" x2="147.604" y2="635.892" gradientUnits="userSpaceOnUse">
<stop stop-color="#00D9FF"/>
<stop offset="1" stop-color="#FF02EE" stop-opacity="0.4"/>
</linearGradient>
<linearGradient id="paint13_linear_44_271" x1="295.604" y1="240" x2="295.604" y2="635.892" gradientUnits="userSpaceOnUse">
<stop stop-color="#00D9FF"/>
<stop offset="1" stop-color="#FF02EE" stop-opacity="0.4"/>
</linearGradient>
<linearGradient id="paint14_linear_44_271" x1="1257.6" y1="0" x2="1257.6" y2="395.892" gradientUnits="userSpaceOnUse">
<stop stop-color="#00D9FF"/>
<stop offset="1" stop-color="#FF02EE" stop-opacity="0.4"/>
</linearGradient>
<linearGradient id="paint15_linear_44_271" x1="1405.6" y1="0" x2="1405.6" y2="395.892" gradientUnits="userSpaceOnUse">
<stop stop-color="#00D9FF"/>
<stop offset="1" stop-color="#FF02EE" stop-opacity="0.4"/>
</linearGradient>
<linearGradient id="paint16_linear_44_271" x1="1331.6" y1="240" x2="1331.6" y2="635.892" gradientUnits="userSpaceOnUse">
<stop stop-color="#00D9FF"/>
<stop offset="1" stop-color="#FF02EE" stop-opacity="0.4"/>
</linearGradient>
<linearGradient id="paint17_linear_44_271" x1="961.604" y1="0" x2="961.604" y2="395.892" gradientUnits="userSpaceOnUse">
<stop stop-color="#00D9FF"/>
<stop offset="1" stop-color="#FF02EE" stop-opacity="0.4"/>
</linearGradient>
<linearGradient id="paint18_linear_44_271" x1="1109.6" y1="0" x2="1109.6" y2="395.892" gradientUnits="userSpaceOnUse">
<stop stop-color="#00D9FF"/>
<stop offset="1" stop-color="#FF02EE" stop-opacity="0.4"/>
</linearGradient>
<linearGradient id="paint19_linear_44_271" x1="1035.6" y1="240" x2="1035.6" y2="635.892" gradientUnits="userSpaceOnUse">
<stop stop-color="#00D9FF"/>
<stop offset="1" stop-color="#FF02EE" stop-opacity="0.4"/>
</linearGradient>
<linearGradient id="paint20_linear_44_271" x1="1183.6" y1="240" x2="1183.6" y2="635.892" gradientUnits="userSpaceOnUse">
<stop stop-color="#00D9FF"/>
<stop offset="1" stop-color="#FF02EE" stop-opacity="0.4"/>
</linearGradient>
<linearGradient id="paint21_linear_44_271" x1="1479.6" y1="240" x2="1479.6" y2="635.892" gradientUnits="userSpaceOnUse">
<stop stop-color="#00D9FF"/>
<stop offset="1" stop-color="#FF02EE" stop-opacity="0.4"/>
</linearGradient>
<linearGradient id="paint22_linear_44_271" x1="665.604" y1="480" x2="665.604" y2="875.892" gradientUnits="userSpaceOnUse">
<stop stop-color="#00D9FF"/>
<stop offset="1" stop-color="#FF02EE" stop-opacity="0.1"/>
</linearGradient>
<linearGradient id="paint23_linear_44_271" x1="813.604" y1="480" x2="813.604" y2="875.892" gradientUnits="userSpaceOnUse">
<stop stop-color="#00D9FF"/>
<stop offset="1" stop-color="#FF02EE" stop-opacity="0.1"/>
</linearGradient>
<linearGradient id="paint24_linear_44_271" x1="369.604" y1="480" x2="369.604" y2="875.892" gradientUnits="userSpaceOnUse">
<stop stop-color="#00D9FF"/>
<stop offset="1" stop-color="#FF02EE" stop-opacity="0.1"/>
</linearGradient>
<linearGradient id="paint25_linear_44_271" x1="517.604" y1="480" x2="517.604" y2="875.892" gradientUnits="userSpaceOnUse">
<stop stop-color="#00D9FF"/>
<stop offset="1" stop-color="#FF02EE" stop-opacity="0.1"/>
</linearGradient>
<linearGradient id="paint26_linear_44_271" x1="73.6045" y1="480" x2="73.6045" y2="875.892" gradientUnits="userSpaceOnUse">
<stop stop-color="#00D9FF"/>
<stop offset="1" stop-color="#FF02EE" stop-opacity="0.1"/>
</linearGradient>
<linearGradient id="paint27_linear_44_271" x1="221.604" y1="480" x2="221.604" y2="875.892" gradientUnits="userSpaceOnUse">
<stop stop-color="#00D9FF"/>
<stop offset="1" stop-color="#FF02EE" stop-opacity="0.1"/>
</linearGradient>
<linearGradient id="paint28_linear_44_271" x1="1257.6" y1="480" x2="1257.6" y2="875.892" gradientUnits="userSpaceOnUse">
<stop stop-color="#00D9FF"/>
<stop offset="1" stop-color="#FF02EE" stop-opacity="0.1"/>
</linearGradient>
<linearGradient id="paint29_linear_44_271" x1="1405.6" y1="480" x2="1405.6" y2="875.892" gradientUnits="userSpaceOnUse">
<stop stop-color="#00D9FF"/>
<stop offset="1" stop-color="#FF02EE" stop-opacity="0.1"/>
</linearGradient>
<linearGradient id="paint30_linear_44_271" x1="961.604" y1="480" x2="961.604" y2="875.892" gradientUnits="userSpaceOnUse">
<stop stop-color="#00D9FF"/>
<stop offset="1" stop-color="#FF02EE" stop-opacity="0.1"/>
</linearGradient>
<linearGradient id="paint31_linear_44_271" x1="1109.6" y1="480" x2="1109.6" y2="875.892" gradientUnits="userSpaceOnUse">
<stop stop-color="#00D9FF"/>
<stop offset="1" stop-color="#FF02EE" stop-opacity="0.1"/>
</linearGradient>
<linearGradient id="paint32_linear_44_271" x1="813.396" y1="2323" x2="813.396" y2="1927.11" gradientUnits="userSpaceOnUse">
<stop stop-color="#00D9FF"/>
<stop offset="1" stop-color="#FF02EE" stop-opacity="0.4"/>
</linearGradient>
<linearGradient id="paint33_linear_44_271" x1="665.396" y1="2323" x2="665.396" y2="1927.11" gradientUnits="userSpaceOnUse">
<stop stop-color="#00D9FF"/>
<stop offset="1" stop-color="#FF02EE" stop-opacity="0.4"/>
</linearGradient>
<linearGradient id="paint34_linear_44_271" x1="739.396" y1="2083" x2="739.396" y2="1687.11" gradientUnits="userSpaceOnUse">
<stop stop-color="#00D9FF"/>
<stop offset="1" stop-color="#FF02EE" stop-opacity="0.4"/>
</linearGradient>
<linearGradient id="paint35_linear_44_271" x1="591.396" y1="2083" x2="591.396" y2="1687.11" gradientUnits="userSpaceOnUse">
<stop stop-color="#00D9FF"/>
<stop offset="1" stop-color="#FF02EE" stop-opacity="0.4"/>
</linearGradient>
<linearGradient id="paint36_linear_44_271" x1="1109.4" y1="2323" x2="1109.4" y2="1927.11" gradientUnits="userSpaceOnUse">
<stop stop-color="#00D9FF"/>
<stop offset="1" stop-color="#FF02EE" stop-opacity="0.4"/>
</linearGradient>
<linearGradient id="paint37_linear_44_271" x1="961.396" y1="2323" x2="961.396" y2="1927.11" gradientUnits="userSpaceOnUse">
<stop stop-color="#00D9FF"/>
<stop offset="1" stop-color="#FF02EE" stop-opacity="0.4"/>
</linearGradient>
<linearGradient id="paint38_linear_44_271" x1="1035.4" y1="2083" x2="1035.4" y2="1687.11" gradientUnits="userSpaceOnUse">
<stop stop-color="#00D9FF"/>
<stop offset="1" stop-color="#FF02EE" stop-opacity="0.4"/>
</linearGradient>
<linearGradient id="paint39_linear_44_271" x1="887.396" y1="2083" x2="887.396" y2="1687.11" gradientUnits="userSpaceOnUse">
<stop stop-color="#00D9FF"/>
<stop offset="1" stop-color="#FF02EE" stop-opacity="0.4"/>
</linearGradient>
<linearGradient id="paint40_linear_44_271" x1="1405.4" y1="2323" x2="1405.4" y2="1927.11" gradientUnits="userSpaceOnUse">
<stop stop-color="#00D9FF"/>
<stop offset="1" stop-color="#FF02EE" stop-opacity="0.4"/>
</linearGradient>
<linearGradient id="paint41_linear_44_271" x1="1257.4" y1="2323" x2="1257.4" y2="1927.11" gradientUnits="userSpaceOnUse">
<stop stop-color="#00D9FF"/>
<stop offset="1" stop-color="#FF02EE" stop-opacity="0.4"/>
</linearGradient>
<linearGradient id="paint42_linear_44_271" x1="1331.4" y1="2083" x2="1331.4" y2="1687.11" gradientUnits="userSpaceOnUse">
<stop stop-color="#00D9FF"/>
<stop offset="1" stop-color="#FF02EE" stop-opacity="0.4"/>
</linearGradient>
<linearGradient id="paint43_linear_44_271" x1="1183.4" y1="2083" x2="1183.4" y2="1687.11" gradientUnits="userSpaceOnUse">
<stop stop-color="#00D9FF"/>
<stop offset="1" stop-color="#FF02EE" stop-opacity="0.4"/>
</linearGradient>
<linearGradient id="paint44_linear_44_271" x1="221.396" y1="2323" x2="221.396" y2="1927.11" gradientUnits="userSpaceOnUse">
<stop stop-color="#00D9FF"/>
<stop offset="1" stop-color="#FF02EE" stop-opacity="0.4"/>
</linearGradient>
<linearGradient id="paint45_linear_44_271" x1="73.3955" y1="2323" x2="73.3955" y2="1927.11" gradientUnits="userSpaceOnUse">
<stop stop-color="#00D9FF"/>
<stop offset="1" stop-color="#FF02EE" stop-opacity="0.4"/>
</linearGradient>
<linearGradient id="paint46_linear_44_271" x1="147.396" y1="2083" x2="147.396" y2="1687.11" gradientUnits="userSpaceOnUse">
<stop stop-color="#00D9FF"/>
<stop offset="1" stop-color="#FF02EE" stop-opacity="0.4"/>
</linearGradient>
<linearGradient id="paint47_linear_44_271" x1="-0.604494" y1="2083" x2="-0.604459" y2="1687.11" gradientUnits="userSpaceOnUse">
<stop stop-color="#00D9FF"/>
<stop offset="1" stop-color="#FF02EE" stop-opacity="0.4"/>
</linearGradient>
<linearGradient id="paint48_linear_44_271" x1="517.396" y1="2323" x2="517.396" y2="1927.11" gradientUnits="userSpaceOnUse">
<stop stop-color="#00D9FF"/>
<stop offset="1" stop-color="#FF02EE" stop-opacity="0.4"/>
</linearGradient>
<linearGradient id="paint49_linear_44_271" x1="369.396" y1="2323" x2="369.396" y2="1927.11" gradientUnits="userSpaceOnUse">
<stop stop-color="#00D9FF"/>
<stop offset="1" stop-color="#FF02EE" stop-opacity="0.4"/>
</linearGradient>
<linearGradient id="paint50_linear_44_271" x1="443.396" y1="2083" x2="443.396" y2="1687.11" gradientUnits="userSpaceOnUse">
<stop stop-color="#00D9FF"/>
<stop offset="1" stop-color="#FF02EE" stop-opacity="0.4"/>
</linearGradient>
<linearGradient id="paint51_linear_44_271" x1="295.396" y1="2083" x2="295.396" y2="1687.11" gradientUnits="userSpaceOnUse">
<stop stop-color="#00D9FF"/>
<stop offset="1" stop-color="#FF02EE" stop-opacity="0.4"/>
</linearGradient>
<linearGradient id="paint52_linear_44_271" x1="813.396" y1="1843" x2="813.396" y2="1447.11" gradientUnits="userSpaceOnUse">
<stop stop-color="#00D9FF"/>
<stop offset="1" stop-color="#FF02EE" stop-opacity="0.1"/>
</linearGradient>
<linearGradient id="paint53_linear_44_271" x1="665.396" y1="1843" x2="665.396" y2="1447.11" gradientUnits="userSpaceOnUse">
<stop stop-color="#00D9FF"/>
<stop offset="1" stop-color="#FF02EE" stop-opacity="0.1"/>
</linearGradient>
<linearGradient id="paint54_linear_44_271" x1="1109.4" y1="1843" x2="1109.4" y2="1447.11" gradientUnits="userSpaceOnUse">
<stop stop-color="#00D9FF"/>
<stop offset="1" stop-color="#FF02EE" stop-opacity="0.1"/>
</linearGradient>
<linearGradient id="paint55_linear_44_271" x1="961.396" y1="1843" x2="961.396" y2="1447.11" gradientUnits="userSpaceOnUse">
<stop stop-color="#00D9FF"/>
<stop offset="1" stop-color="#FF02EE" stop-opacity="0.1"/>
</linearGradient>
<linearGradient id="paint56_linear_44_271" x1="1405.4" y1="1843" x2="1405.4" y2="1447.11" gradientUnits="userSpaceOnUse">
<stop stop-color="#00D9FF"/>
<stop offset="1" stop-color="#FF02EE" stop-opacity="0.1"/>
</linearGradient>
<linearGradient id="paint57_linear_44_271" x1="1257.4" y1="1843" x2="1257.4" y2="1447.11" gradientUnits="userSpaceOnUse">
<stop stop-color="#00D9FF"/>
<stop offset="1" stop-color="#FF02EE" stop-opacity="0.1"/>
</linearGradient>
<linearGradient id="paint58_linear_44_271" x1="221.396" y1="1843" x2="221.396" y2="1447.11" gradientUnits="userSpaceOnUse">
<stop stop-color="#00D9FF"/>
<stop offset="1" stop-color="#FF02EE" stop-opacity="0.1"/>
</linearGradient>
<linearGradient id="paint59_linear_44_271" x1="73.3955" y1="1843" x2="73.3955" y2="1447.11" gradientUnits="userSpaceOnUse">
<stop stop-color="#00D9FF"/>
<stop offset="1" stop-color="#FF02EE" stop-opacity="0.1"/>
</linearGradient>
<linearGradient id="paint60_linear_44_271" x1="517.396" y1="1843" x2="517.396" y2="1447.11" gradientUnits="userSpaceOnUse">
<stop stop-color="#00D9FF"/>
<stop offset="1" stop-color="#FF02EE" stop-opacity="0.1"/>
</linearGradient>
<linearGradient id="paint61_linear_44_271" x1="369.396" y1="1843" x2="369.396" y2="1447.11" gradientUnits="userSpaceOnUse">
<stop stop-color="#00D9FF"/>
<stop offset="1" stop-color="#FF02EE" stop-opacity="0.1"/>
</linearGradient>
<linearGradient id="paint62_linear_44_271" x1="1479.4" y1="2083" x2="1479.4" y2="1687.11" gradientUnits="userSpaceOnUse">
<stop stop-color="#00D9FF"/>
<stop offset="1" stop-color="#FF02EE" stop-opacity="0.4"/>
</linearGradient>
<clipPath id="clip0_44_271">
<rect width="1479" height="2323" fill="white"/>
</clipPath>
</defs>
</svg>
