<svg width="152" height="190" viewBox="0 0 152 190" fill="none" xmlns="http://www.w3.org/2000/svg">
<path fill-rule="evenodd" clip-rule="evenodd" d="M32.7524 120.564C35.2693 97.3184 29.8027 74.089 12.703 63.9068L25.9294 42.9249C56.237 60.9718 62.7012 95.6001 59.6873 123.436C58.1437 137.692 54.0637 151.464 48.3769 162.605C43.0276 173.085 35.3931 181.725 24.2109 185.886L14.2046 162.847C12.703 162.847 13.849 159.926 21.9492 152.102C26.0402 144.087 31.5305 131.848 32.7524 120.564Z" fill="#77A2D2"/>
<path fill-rule="evenodd" clip-rule="evenodd" d="M53.9348 127.107C56.3188 107.244 56.3498 86.4278 51.0326 72.3456L68.7323 65.6626C75.7539 84.2592 75.1679 108.96 72.7192 129.362C70.2471 149.959 65.5891 168.306 62.9445 175.128L45.3042 168.29C47.1838 163.441 51.5742 146.775 53.9348 127.107Z" fill="#FFDA62"/>
<path fill-rule="evenodd" clip-rule="evenodd" d="M67.8249 150.254C74.2261 149.625 74.8771 150.857 80.0075 149.782L87.3843 180.117C77.6829 182.151 68.0609 182.053 60.2786 181.671C56.8214 181.501 53.9724 181.304 51.4923 181.134C48.7064 180.942 46.3858 180.782 44.1912 180.727C44.2447 180.921 44.3015 181.121 44.3618 181.329L13.7697 186.953C11.1805 178.057 7.79265 168.975 15.3384 159.776C22.9207 150.532 34.8967 149.742 40.8814 149.625C45.3977 149.537 51.1469 149.92 56.1728 150.254C58.3133 150.397 66.0979 150.169 67.8249 150.254ZM43.3515 175.913C43.3515 175.913 43.3511 175.923 43.3486 175.942C43.35 175.922 43.3515 175.913 43.3515 175.913ZM38.7921 180.934C38.686 180.966 38.6256 180.978 38.6219 180.976C38.6182 180.973 38.6713 180.957 38.7921 180.934Z" fill="#77A2D2"/>
<path fill-rule="evenodd" clip-rule="evenodd" d="M72.5291 54.8452C72.5803 54.8374 72.5846 54.8367 72.5441 54.8476L76.4405 53.7971L80.3959 54.5977C125.177 63.6619 153.734 89.7984 151.061 123.332C148.521 155.206 118.278 178.684 79.1916 183.73L74.8083 149.777C105.14 145.861 116.186 130.007 116.935 120.611C117.534 113.093 112.131 94.8025 76.4405 90.9344C73.1592 90.5787 63.4784 89.2051 56.8571 88.0807C47.9856 86.5742 37.7009 83.4232 28.272 77.7976C18.7766 72.1323 9.52752 63.5544 4.27259 51.1256C-1.0548 38.5254 -1.4641 23.8862 3.40393 7.75215L36.1794 17.6413C33.1644 27.6339 34.1509 33.8817 35.8049 37.7937C37.5313 41.877 40.8492 45.4363 45.813 48.3979C50.8432 51.3992 56.9099 53.3647 62.5886 54.3291C65.3795 54.803 67.8512 54.9959 69.7891 55.0026C71.4601 55.0085 72.3344 54.8749 72.5291 54.8452Z" fill="#77A2D2"/>
<path d="M1.32288 5.22862C1.32288 23.3877 8.20454 44.2911 20.4539 57.1312C32.7027 69.972 49.3165 77.1859 66.6394 77.1859C83.9622 77.1859 100.576 69.972 112.825 57.1318C125.074 44.2911 131.837 23.3877 131.837 5.22862C110.511 1.66165 95.9192 -0.817009 63.5573 0.24987C31.1954 1.31675 25.3492 1.08907 1.32288 5.22862Z" fill="#FFDA62"/>
<path d="M106.73 189.727C106.73 182.559 101.747 175.684 92.8769 170.616C84.0071 165.547 71.9763 162.7 59.4322 162.7C46.8881 162.7 34.8575 165.547 25.9873 170.616C17.1172 175.684 12.134 182.559 12.134 189.727H59.4322H106.73Z" fill="#FFDA62"/>
<path d="M71.7366 152.458L78.8491 151.746L80.9828 165.616L71.7366 163.482V152.458Z" fill="#77A2D2"/>
<path d="M26.5721 148.546L48.6209 145.345L46.8428 154.591L19.4596 159.57L23.3715 154.591L26.5721 148.546Z" fill="#77A2D2"/>
<path d="M24.4386 71.7306L52.1774 83.4662L52.533 91.29L32.9736 87.3781L29.0617 78.1318L24.4386 71.7306Z" fill="#77A2D2"/>
</svg>
