<svg width="212" height="129" viewBox="0 0 212 129" fill="none" xmlns="http://www.w3.org/2000/svg">
<path d="M55.7621 128.296C44.6559 128.296 34.9632 126.58 26.684 123.147C18.5057 119.714 12.1449 115.019 7.60141 109.062C3.15892 103.004 0.937667 96.1387 0.937667 88.4653C0.937667 82.2054 2.04829 76.5009 4.26954 71.3516C6.49079 66.2023 9.4188 61.9113 13.0536 58.4785C16.7893 55.0456 20.8784 52.7739 25.3209 51.6633C26.0277 51.5623 26.3811 51.8147 26.3811 52.4205C26.3811 52.9253 26.1286 53.3292 25.6238 53.6321C20.3736 56.762 16.335 61.255 13.5079 67.111C10.7818 72.9671 9.4188 79.4793 9.4188 86.6479C9.4188 94.4223 11.4381 101.137 15.4767 106.791C19.5154 112.344 25.018 116.584 31.9847 119.512C39.0523 122.541 46.9781 124.056 55.7621 124.056C63.3345 124.056 70.5031 122.693 77.2678 119.967C84.1335 117.342 90.4439 113.707 96.1989 109.062C101.954 104.418 107.103 99.1677 111.647 93.3117C116.291 87.3547 120.178 81.1453 123.308 74.6835C124.015 73.169 124.722 71.705 125.429 70.2915C126.135 68.8779 126.842 67.4644 127.549 66.0509C125.126 65.9499 122.904 65.849 120.885 65.748C118.967 65.647 117.654 65.5965 116.947 65.5965C114.221 65.5965 111.293 65.7985 108.163 66.2023C105.134 66.5052 102.257 67.1615 99.5308 68.1712C96.9057 69.1808 94.7349 70.7458 93.0185 72.8661C92.3117 73.5728 91.8574 74.1282 91.6555 74.532C91.5545 74.9359 91.3526 75.1378 91.0497 75.1378C90.6458 75.1378 90.2924 74.8349 89.9895 74.2291C89.6866 73.5224 89.7371 72.7651 90.141 71.9574C92.4632 66.8081 95.7446 63.3248 99.9851 61.5074C104.226 59.5891 108.971 58.6299 114.221 58.6299C115.332 58.6299 117.402 58.8318 120.431 59.2357C123.561 59.5386 126.842 59.892 130.275 60.2958C134.717 51.3099 138.756 43.1821 142.391 35.9126C146.127 28.6431 149.61 22.5851 152.841 17.7387C145.571 15.3156 137.847 13.1953 129.669 11.3779C121.491 9.45955 112.707 8.50037 103.317 8.50037C96.3504 8.50037 90.04 9.45955 84.3859 11.3779C78.7318 13.2963 73.8855 15.8709 69.8468 19.1018C65.9092 22.3327 62.8802 25.917 60.7599 29.8546C58.6396 33.7923 57.5795 37.73 57.5795 41.6676C57.5795 46.1101 58.4377 49.6439 60.1541 52.2691C61.8705 54.8942 64.0918 56.8125 66.8179 58.0241C69.6449 59.1347 72.5224 59.69 75.4504 59.69C79.792 59.69 83.4772 58.6299 86.5062 56.5096C89.6361 54.3893 92.1098 52.0166 93.9272 49.3915C95.7446 46.6655 96.8552 44.4442 97.2591 42.7278C97.6629 41.1123 98.2687 40.3046 99.0764 40.3046C100.288 40.3046 100.793 41.0114 100.591 42.4249C99.9851 46.8674 98.4202 50.7041 95.896 53.935C93.3719 57.1659 90.2924 59.6396 86.6576 61.356C83.0229 62.9714 79.1862 63.7792 75.1475 63.7792C71.008 63.7792 67.0198 62.7695 63.1831 60.7502C59.3464 58.7309 56.2165 55.8029 53.7933 51.9662C51.3701 48.1295 50.1585 43.485 50.1585 38.0329C50.1585 33.5904 51.1177 29.1984 53.036 24.8568C55.0553 20.4143 58.0338 16.3757 61.9715 12.7409C66.0101 9.0052 71.1089 6.02671 77.2678 3.80546C83.4267 1.58421 90.6963 0.473589 99.0764 0.473589C105.033 0.473589 111.142 1.18035 117.402 2.59387C123.662 3.90643 129.972 5.62285 136.333 7.74312C142.795 9.76244 149.155 11.8827 155.415 14.104C157.536 11.3779 159.555 9.3081 161.473 7.89458C163.392 6.38009 165.31 5.62284 167.228 5.62284C168.036 5.62284 168.591 5.82477 168.894 6.22864C169.197 6.53154 169.349 6.83443 169.349 7.13733C169.349 7.54119 169.197 7.99554 168.894 8.50037C168.591 9.0052 168.036 9.25761 167.228 9.25761C163.897 9.25761 160.767 11.1255 157.839 14.8612C165.108 17.2844 172.075 19.4552 178.738 21.3735C185.503 23.1909 191.763 24.0996 197.518 24.0996C201.961 24.0996 204.889 23.6452 206.302 22.7366C207.716 21.7269 208.422 20.3639 208.422 18.6474C208.422 17.5368 208.776 16.9815 209.483 16.9815C209.987 16.9815 210.442 17.3349 210.846 18.0416C211.35 18.6474 211.603 19.4047 211.603 20.3134C211.603 22.7366 210.24 24.7054 207.514 26.2199C204.889 27.7344 201.203 28.4916 196.458 28.4916C190.198 28.4916 183.686 27.4819 176.921 25.4626C170.156 23.3423 162.988 21.0201 155.415 18.496C152.689 23.0394 150.014 28.9964 147.389 36.3669C144.763 43.6365 141.684 51.8652 138.15 61.0531C142.492 61.4569 147.086 61.8103 151.932 62.1132C156.778 62.3152 160.716 62.4161 163.745 62.4161C164.755 62.4161 165.26 62.719 165.26 63.3248C165.26 64.1325 164.098 64.8393 161.776 65.4451C160.262 65.849 157.687 66.1519 154.052 66.3538C150.519 66.5557 146.833 66.6567 142.997 66.6567C142.189 66.6567 141.179 66.6567 139.968 66.6567C138.756 66.5557 137.443 66.5052 136.03 66.5052C135.121 68.8275 134.162 71.2001 133.152 73.6233C132.244 75.9455 131.234 78.3687 130.123 80.8929C125.883 90.8885 120.683 99.0162 114.524 105.276C108.466 111.435 101.954 116.18 94.9873 119.512C88.1217 122.945 81.256 125.267 74.3903 126.479C67.6256 127.691 61.4162 128.296 55.7621 128.296Z" fill="#C989CB"/>
</svg>
