<svg width="54" height="54" viewBox="0 0 54 54" fill="none" xmlns="http://www.w3.org/2000/svg">
<path d="M26.64 0C11.92 0 0 11.9467 0 26.6667C0 41.3867 11.92 53.3333 26.64 53.3333C41.3867 53.3333 53.3333 41.3867 53.3333 26.6667C53.3333 11.9467 41.3867 0 26.64 0ZM45.12 16H37.2533C36.4 12.6667 35.1733 9.46667 33.5733 6.50667C38.48 8.18667 42.56 11.6 45.12 16ZM26.6667 5.44C28.88 8.64 30.6133 12.1867 31.76 16H21.5733C22.72 12.1867 24.4533 8.64 26.6667 5.44ZM6.02667 32C5.6 30.2933 5.33333 28.5067 5.33333 26.6667C5.33333 24.8267 5.6 23.04 6.02667 21.3333H15.04C14.8267 23.0933 14.6667 24.8533 14.6667 26.6667C14.6667 28.48 14.8267 30.24 15.04 32H6.02667ZM8.21333 37.3333H16.08C16.9333 40.6667 18.16 43.8667 19.76 46.8267C14.8533 45.1467 10.7733 41.76 8.21333 37.3333ZM16.08 16H8.21333C10.7733 11.5733 14.8533 8.18667 19.76 6.50667C18.16 9.46667 16.9333 12.6667 16.08 16ZM26.6667 47.8933C24.4533 44.6933 22.72 41.1467 21.5733 37.3333H31.76C30.6133 41.1467 28.88 44.6933 26.6667 47.8933ZM32.9067 32H20.4267C20.1867 30.24 20 28.48 20 26.6667C20 24.8533 20.1867 23.0667 20.4267 21.3333H32.9067C33.1467 23.0667 33.3333 24.8533 33.3333 26.6667C33.3333 28.48 33.1467 30.24 32.9067 32ZM33.5733 46.8267C35.1733 43.8667 36.4 40.6667 37.2533 37.3333H45.12C42.56 41.7333 38.48 45.1467 33.5733 46.8267ZM38.2933 32C38.5067 30.24 38.6667 28.48 38.6667 26.6667C38.6667 24.8533 38.5067 23.0933 38.2933 21.3333H47.3067C47.7333 23.04 48 24.8267 48 26.6667C48 28.5067 47.7333 30.2933 47.3067 32H38.2933Z" fill="#B5E3F1"/>
</svg>
