<svg width="149" height="102" viewBox="0 0 149 102" fill="none" xmlns="http://www.w3.org/2000/svg">
<path d="M136.172 70.824L140.119 67.4414L149 98.8386L144.016 98.8386L136.172 70.824Z" fill="#BBA192"/>
<path d="M95.3754 67.9875L100.148 66.6512L108.857 98.6725L103.967 98.6725L95.3754 67.9875Z" fill="#BBA192"/>
<rect x="130.251" y="12.2968" width="9.74553" height="86.341" transform="rotate(-0.336085 130.251 12.2968)" fill="#BBA192"/>
<rect x="90.4506" y="12.2405" width="9.65933" height="86.341" transform="rotate(-0.336085 90.4506 12.2405)" fill="#BBA192"/>
<rect x="93.7414" y="29.9452" width="43.4172" height="31.0828" fill="#B8F3FA" stroke="#BBA192" stroke-width="5.92052"/>
<rect x="96.7017" y="47.7073" width="37.4967" height="11.8411" fill="#60DD83"/>
<circle cx="103.609" cy="38.8264" r="4.93377" fill="#D9F781"/>
<path d="M96.7019 47.7067H134.199V53.6272H96.7019V47.7067Z" fill="#38A112"/>
<line x1="83.6393" y1="54.8789" x2="96.7051" y2="48.9584" stroke="#E9D7B0" stroke-width="5.92052"/>
<line x1="69.6347" y1="75.4779" x2="68.0809" y2="101.171" stroke="#E9D7B0" stroke-width="5.92052"/>
<line x1="77.9451" y1="75.11" x2="79.9186" y2="100.803" stroke="#E9D7B0" stroke-width="5.92052"/>
<line x1="73.2743" y1="39.8378" x2="87.0889" y2="55.6259" stroke="#E18C8D" stroke-width="5.92052"/>
<line x1="71.1662" y1="37.9599" x2="57.3517" y2="51.7744" stroke="#E18C8D" stroke-width="5.92052"/>
<line x1="57.666" y1="51.2965" x2="51.9943" y2="62.8285" stroke="#E9D7B0" stroke-width="5.92052"/>
<path d="M74.9936 33.8932L79.9273 39.8137L84.8611 81.2574H63.1525L67.0995 37.5935L69.0731 33.8932H74.9936Z" fill="#E18C8D"/>
<line x1="91.329" y1="44.9132" x2="103.17" y2="52.8073" stroke="#505050" stroke-width="1.97351"/>
<path d="M101.636 50.6676L105.583 51.6542L107.556 55.6012L102.623 55.6012L100.649 52.6412L101.636 50.6676Z" fill="#BBA192"/>
<ellipse cx="73.0201" cy="26.9859" rx="7.89403" ry="8.88079" fill="#E9D7B0"/>
<path d="M79.2584 20.0507C78.5995 19.2767 77.7781 18.6542 76.8411 18.2186C75.9042 17.783 74.87 17.5429 73.7976 17.512C72.7253 17.4811 71.6357 17.6599 70.5912 18.0384C69.5467 18.4168 68.5676 18.9874 67.71 19.7176C66.8523 20.4478 66.1328 21.3233 65.5926 22.294C65.0524 23.2648 64.702 24.3119 64.5615 25.3754C64.4209 26.439 64.493 27.4983 64.7735 28.4927C65.0541 29.4872 65.5376 30.3973 66.1965 31.1713L72.7274 25.611L79.2584 20.0507Z" fill="#88744D"/>
<path d="M79.2584 20.0507C78.5995 19.2767 77.7781 18.6542 76.8411 18.2186C75.9042 17.783 74.87 17.5429 73.7976 17.512C72.7253 17.4811 71.6357 17.6599 70.5912 18.0384C69.5467 18.4168 68.5676 18.9874 67.71 19.7176C66.8523 20.4478 66.1328 21.3233 65.5926 22.294C65.0524 23.2648 64.702 24.3119 64.5615 25.3754C64.4209 26.439 64.493 27.4983 64.7735 28.4927C65.0541 29.4872 65.5376 30.3973 66.1965 31.1713L72.7274 25.611L79.2584 20.0507Z" fill="#88744D"/>
<ellipse cx="67.0205" cy="19.7647" rx="7.89403" ry="5.82769" transform="rotate(-40.4103 67.0205 19.7647)" fill="#88744D"/>
<ellipse cx="67.0205" cy="19.7647" rx="7.89403" ry="5.82769" transform="rotate(-40.4103 67.0205 19.7647)" fill="#88744D"/>
<line x1="35.7585" y1="47.7093" x2="49.5731" y2="63.189" stroke="#EFE0BF" stroke-width="5.92052"/>
<line x1="28.361" y1="30.7164" x2="36.255" y2="48.478" stroke="#EFE0BF" stroke-width="5.92052"/>
<line x1="14.6494" y1="24.9608" x2="8.72883" y2="42.7224" stroke="#EFE0BF" stroke-width="5.92052"/>
<path d="M8.8808 41.7862L8.8808 60.5345" stroke="#EFE0BF" stroke-width="5.92052"/>
<path d="M21.7086 61.5214L16.7748 82.2432L3.94702 99.0181L0 93.0975L8.88079 82.2432L13.8146 61.5214H17.5294H21.7086Z" fill="#92A8F0"/>
<path d="M31.5762 61.5214V71.1483V100.992H23.6821V61.5214H27.397H31.5762Z" fill="#92A8F0"/>
<path d="M25.6556 21.0645L31.5761 25.0115L32.5629 27.9717L30.5894 39.8128L32.5629 63.4949H11.8411L9.86755 34.879L11.8411 24.0247L18.7483 21.0645H25.6556Z" fill="#8B89B2"/>
<ellipse cx="21.7085" cy="12.1836" rx="7.89403" ry="9.86754" fill="#EFE0BF"/>
<path d="M29.6026 7.24991C29.6026 9.97475 17.7616 15.1439 14.8013 18.1042C10.4415 18.1042 8.88074 7.24991 12.8277 7.24991C6.90711 7.24991 16.7748 -0.644127 19.735 1.32938C20.7218 -2.6177 29.6026 3.084 29.6026 7.24991Z" fill="#A79676"/>
</svg>
