<svg width="147" height="24" viewBox="0 0 147 24" fill="none" xmlns="http://www.w3.org/2000/svg">
<g clip-path="url(#clip0_8_18)">
<path d="M36.9666 7.5203H34.4336L31.9336 23.3323H34.5956L36.4136 11.8713C37.022 11.161 37.7664 10.5797 38.603 10.1615C39.4395 9.74328 40.3513 9.49671 41.2846 9.4363C43.1676 9.4363 44.1416 10.4103 44.1416 12.5203C44.1007 13.4361 43.9921 14.3476 43.8166 15.2473L42.5166 23.3313H45.1786L46.4446 15.2473C46.6544 14.0778 46.7847 12.8954 46.8346 11.7083C46.8346 8.6893 45.1466 7.1303 42.2566 7.1303C41.2116 7.14046 40.1798 7.3646 39.2247 7.7889C38.2697 8.21319 37.4116 8.82864 36.7036 9.5973H36.6386L36.9636 7.5193L36.9666 7.5203ZM65.1156 7.5203H62.5826L62.2906 9.3063H62.2256C61.7747 8.57491 61.1287 7.98385 60.3602 7.5996C59.5917 7.21535 58.7312 7.05317 57.8756 7.1313C53.9136 7.1313 49.7266 10.6703 49.7266 17.0313C49.7266 21.4143 51.8696 23.7203 55.1486 23.7203C56.1482 23.7508 57.1408 23.5429 58.0442 23.1137C58.9475 22.6846 59.7357 22.0465 60.3436 21.2523H60.4036L60.0786 23.3303H62.6106L65.1106 7.5183L65.1156 7.5203ZM61.8366 11.4823L60.6676 19.0153C60.0925 19.7233 59.3712 20.2986 58.5531 20.7019C57.735 21.1053 56.8394 21.3271 55.9276 21.3523C53.7526 21.3523 52.3886 20.0213 52.3886 17.0663C52.3886 12.1663 55.0506 9.4363 58.1356 9.4363C58.8828 9.39194 59.6272 9.56069 60.2822 9.9229C60.9372 10.2851 61.4769 10.8259 61.8366 11.4823ZM82.3556 7.5203H79.4656L73.0366 19.7893H72.9716L70.4396 7.5203H67.6476L71.4136 23.3323H73.5566L82.3556 7.5203ZM100.148 0.280297H95.8296L94.4666 8.9163H94.4036C94.0038 8.25448 93.4264 7.71804 92.737 7.36787C92.0476 7.0177 91.2739 6.86784 90.5036 6.9353C86.4456 6.9353 82.4196 10.7013 82.4196 17.0353C82.4196 21.3853 84.4656 23.7243 87.7436 23.7243C88.7037 23.7586 89.6574 23.5541 90.519 23.1291C91.3807 22.7041 92.1234 22.072 92.6806 21.2893H92.7456L92.4206 23.3353H96.5116L100.149 0.279297L100.148 0.280297ZM94.0106 12.0013L92.9716 18.4293C92.5465 18.9398 92.0158 19.3522 91.4161 19.6381C90.8164 19.9239 90.1619 20.0765 89.4976 20.0853C87.8096 20.0853 86.8036 19.0463 86.8036 16.8063C86.8036 12.8133 88.9136 10.5063 91.2836 10.5063C91.8326 10.4736 92.3798 10.5965 92.8622 10.8608C93.3445 11.125 93.7426 11.521 94.0106 12.0013ZM117.193 7.3263H113.167L112.842 9.0473H112.777C112.357 8.34396 111.747 7.77307 111.018 7.39993C110.288 7.02678 109.469 6.86646 108.653 6.9373C104.529 6.9373 100.569 10.6373 100.569 16.9043C100.569 21.3843 102.647 23.7223 105.893 23.7223C106.853 23.7591 107.807 23.5559 108.669 23.131C109.531 22.7062 110.273 22.0732 110.829 21.2893H110.894L110.601 23.3353H114.692L117.192 7.3283L117.193 7.3263ZM112.16 11.9693L111.154 18.4303C110.717 18.9361 110.18 19.3448 109.576 19.63C108.972 19.9153 108.315 20.0707 107.648 20.0863C105.992 20.0863 104.921 19.0473 104.921 16.7093C104.921 12.8453 106.934 10.5093 109.369 10.5093C109.925 10.4578 110.485 10.5683 110.98 10.8275C111.476 11.0867 111.886 11.4836 112.161 11.9703L112.16 11.9693ZM126.478 3.7553H122.192L121.604 7.3263H119.656L119.104 10.7673H121.052L120.175 16.4163C120.004 17.3597 119.906 18.3149 119.882 19.2733C119.882 22.3903 121.668 23.6563 124.428 23.6563C125.438 23.6865 126.443 23.5098 127.383 23.1373L127.676 19.7603C127.159 19.9141 126.623 19.9909 126.085 19.9883C124.851 19.9883 124.299 19.4693 124.299 18.1053C124.311 17.4949 124.379 16.887 124.504 16.2893L125.348 10.7703H129.248L129.8 7.3293H125.9L126.485 3.7583L126.478 3.7553ZM146.738 7.3263H142.711L142.386 9.0473H142.321C141.901 8.34396 141.291 7.77307 140.562 7.39993C139.832 7.02678 139.013 6.86646 138.197 6.9373C134.073 6.9373 130.113 10.6373 130.113 16.9043C130.113 21.3843 132.191 23.7223 135.437 23.7223C136.397 23.7592 137.351 23.5561 138.213 23.1313C139.075 22.7065 139.818 22.0734 140.374 21.2893H140.439L140.147 23.3353H144.238L146.738 7.3283V7.3263ZM141.704 11.9693L140.704 18.4303C140.267 18.9371 139.729 19.3467 139.125 19.6325C138.52 19.9182 137.862 20.0739 137.194 20.0893C135.538 20.0893 134.467 19.0503 134.467 16.7123C134.467 12.8483 136.48 10.5123 138.915 10.5123C139.471 10.4608 140.031 10.5713 140.526 10.8305C141.022 11.0897 141.432 11.4866 141.707 11.9733L141.704 11.9693Z" fill="#002664" fill-opacity="0.7"/>
<path fill-rule="evenodd" clip-rule="evenodd" d="M22.5398 23.3322L23.5548 16.9092H9.03577L8.69877 19.0502H10.8398L10.5028 21.1912H8.36177L8.69877 19.0502H6.55777L6.22077 21.1912H4.07977L3.74477 23.3322H22.5448H22.5398ZM6.89477 16.9092H4.75377L4.41677 19.0502H6.55777L6.89477 16.9092ZM4.07977 21.1912L4.41677 19.0502H2.27577L1.93877 21.1912H4.07977ZM2.27977 19.0502L2.61677 16.9092H0.471766L0.134766 19.0502H2.27977Z" fill="#009FDA" fill-opacity="0.7"/>
<path fill-rule="evenodd" clip-rule="evenodd" d="M6.43359 13.7492H24.0556L25.0716 7.3252H7.4446L6.43359 13.7492Z" fill="#002664" fill-opacity="0.7"/>
</g>
<defs>
<clipPath id="clip0_8_18">
<rect width="147" height="24" fill="white"/>
</clipPath>
</defs>
</svg>
