<svg width="212" height="153" viewBox="0 0 212 153" fill="none" xmlns="http://www.w3.org/2000/svg">
<g clip-path="url(#clip0_5_8)">
<mask id="path-1-inside-1_5_8" fill="white">
<path fill-rule="evenodd" clip-rule="evenodd" d="M103.895 151.519C163.93 150.618 212.443 125.431 211.012 95.0991C209.582 64.7669 164.01 39.9689 103.975 40.8691C66.8646 37.4541 11.9624 57.3059 9.64049 90.4658C2.88426 122.902 43.8599 152.419 103.895 151.519ZM104.993 108.651C151.666 107.951 189.403 97.1002 189.106 77.2716C188.808 57.4431 150.731 41.9363 104.059 42.6362C57.3856 43.336 19.7908 59.9776 20.0881 79.8061C20.3854 99.6347 58.3205 109.35 104.993 108.651Z"/>
</mask>
<path fill-rule="evenodd" clip-rule="evenodd" d="M103.895 151.519C163.93 150.618 212.443 125.431 211.012 95.0991C209.582 64.7669 164.01 39.9689 103.975 40.8691C66.8646 37.4541 11.9624 57.3059 9.64049 90.4658C2.88426 122.902 43.8599 152.419 103.895 151.519ZM104.993 108.651C151.666 107.951 189.403 97.1002 189.106 77.2716C188.808 57.4431 150.731 41.9363 104.059 42.6362C57.3856 43.336 19.7908 59.9776 20.0881 79.8061C20.3854 99.6347 58.3205 109.35 104.993 108.651Z" fill="#F9D589"/>
<path d="M211.012 95.0991L209.84 95.1544L209.84 95.1544L211.012 95.0991ZM103.895 151.519L103.912 152.692L103.912 152.692L103.895 151.519ZM103.975 40.8691L103.867 42.0381L103.93 42.0438L103.992 42.0429L103.975 40.8691ZM9.64049 90.4658L10.7897 90.7052L10.8059 90.6272L10.8115 90.5478L9.64049 90.4658ZM189.106 77.2716L187.932 77.2892L187.932 77.2892L189.106 77.2716ZM104.993 108.651L105.011 109.824L105.011 109.824L104.993 108.651ZM104.059 42.6362L104.041 41.4624L104.041 41.4624L104.059 42.6362ZM20.0881 79.8061L21.2618 79.7885L21.2618 79.7885L20.0881 79.8061ZM209.84 95.1544C210.522 109.618 199.286 123.171 179.958 133.306C160.7 143.404 133.752 149.897 103.877 150.345L103.912 152.692C134.073 152.24 161.398 145.689 181.048 135.385C200.628 125.119 212.933 110.913 212.185 95.0438L209.84 95.1544ZM103.992 42.0429C133.858 41.595 160.06 47.5423 178.931 57.3143C197.844 67.1086 209.153 80.598 209.84 95.1544L212.185 95.0438C211.441 79.268 199.249 65.1923 180.01 55.2296C160.728 45.2446 134.127 39.243 103.957 39.6954L103.992 42.0429ZM10.8115 90.5478C11.9261 74.6294 25.7134 61.6457 44.2573 53.0161C62.7367 44.4166 85.5326 40.3508 103.867 42.0381L104.082 39.7002C85.3068 37.9724 62.0965 42.125 43.2668 50.8876C24.5016 59.6201 9.67679 73.1422 8.46949 90.3838L10.8115 90.5478ZM103.877 150.345C74.0384 150.792 49.0351 143.677 32.3742 132.518C15.7091 121.357 7.5429 106.293 10.7897 90.7052L8.49129 90.2264C4.98185 107.075 13.9253 122.988 31.0678 134.469C48.2144 145.953 73.7164 153.145 103.912 152.692L103.877 150.345ZM187.932 77.2892C188 81.8243 185.909 85.9172 181.865 89.5702C177.802 93.2407 171.816 96.413 164.279 99.0252C149.211 104.247 128.247 107.128 104.976 107.477L105.011 109.824C128.413 109.473 149.653 106.579 165.048 101.243C172.742 98.577 179.052 95.2751 183.439 91.3124C187.845 87.3323 190.36 82.6333 190.279 77.254L187.932 77.2892ZM104.076 43.8099C127.294 43.4617 148.318 47.1477 163.53 53.3429C171.139 56.4414 177.238 60.1453 181.436 64.2369C185.628 68.3237 187.864 72.7327 187.932 77.2892L190.279 77.254C190.199 71.8963 187.563 66.9312 183.074 62.5557C178.59 58.1848 172.198 54.3379 164.416 51.1686C148.847 44.8282 127.496 41.1107 104.041 41.4624L104.076 43.8099ZM21.2618 79.7885C21.1935 75.232 23.2956 70.758 27.3639 66.5472C31.4368 62.3316 37.4226 58.4466 44.9346 55.1213C59.9542 48.4728 80.8584 44.1581 104.076 43.8099L104.041 41.4624C80.5857 41.8142 59.356 46.1701 43.9843 52.9745C36.3007 56.3757 30.0264 60.4126 25.6755 64.9159C21.3198 69.4241 18.834 74.466 18.9144 79.8237L21.2618 79.7885ZM104.976 107.477C81.7045 107.826 60.6909 105.575 45.5015 100.806C37.9032 98.4214 31.8394 95.43 27.678 91.8832C23.5366 88.3535 21.3299 84.3248 21.2618 79.7885L18.9144 79.8237C18.995 85.2017 21.6416 89.8232 26.1552 93.6701C30.6487 97.4999 37.0415 100.612 44.7983 103.046C60.319 107.918 81.6093 110.175 105.011 109.824L104.976 107.477Z" fill="#E5B14A" mask="url(#path-1-inside-1_5_8)"/>
<path d="M189.33 76.9995C184.631 103.38 181.633 76.4533 112.645 63.2221C53.3524 51.8503 6.70367 115.033 22.449 69.5978C31.6042 56.3964 68.4366 40.1599 115.144 42.5767C160.642 44.931 186.657 58.015 189.33 76.9995Z" fill="#E2C78D"/>
<mask id="path-4-inside-2_5_8" fill="white">
<path fill-rule="evenodd" clip-rule="evenodd" d="M92.0743 116.893C149.828 133.31 203.537 123.151 210.898 93.6906C218.258 64.2302 181.751 27.3651 123.997 10.9483C89.4404 -3.00314 31.1477 0.206995 19.3801 31.2955C3.57413 60.4147 34.3206 100.476 92.0743 116.893ZM105.464 76.1547C150.364 88.9176 189.627 89.3875 195.049 70.3124C200.471 51.2373 168.468 25.4275 123.569 12.6646C78.6696 -0.0982515 37.8759 5.0188 32.4537 24.0939C27.0315 43.169 60.565 63.3918 105.464 76.1547Z"/>
</mask>
<path fill-rule="evenodd" clip-rule="evenodd" d="M92.0743 116.893C149.828 133.31 203.537 123.151 210.898 93.6906C218.258 64.2302 181.751 27.3651 123.997 10.9483C89.4404 -3.00314 31.1477 0.206995 19.3801 31.2955C3.57413 60.4147 34.3206 100.476 92.0743 116.893ZM105.464 76.1547C150.364 88.9176 189.627 89.3875 195.049 70.3124C200.471 51.2373 168.468 25.4275 123.569 12.6646C78.6696 -0.0982515 37.8759 5.0188 32.4537 24.0939C27.0315 43.169 60.565 63.3918 105.464 76.1547Z" fill="#F9D589"/>
<path d="M210.898 93.6906L209.759 93.406L209.759 93.406L210.898 93.6906ZM92.0743 116.893L91.7534 118.022L91.7534 118.022L92.0743 116.893ZM123.997 10.9483L123.558 12.0368L123.616 12.0602L123.676 12.0774L123.997 10.9483ZM19.3801 31.2955L20.4118 31.8555L20.4498 31.7855L20.478 31.711L19.3801 31.2955ZM195.049 70.3124L193.92 69.9914L193.92 69.9914L195.049 70.3124ZM105.464 76.1547L105.785 75.0256L105.785 75.0256L105.464 76.1547ZM123.569 12.6646L123.248 13.7938L123.248 13.7938L123.569 12.6646ZM32.4537 24.0939L33.5828 24.4148L32.4537 24.0939ZM209.759 93.406C206.249 107.454 191.588 117.2 170.161 121.343C148.811 125.471 121.135 123.933 92.3953 115.764L91.7534 118.022C120.767 126.269 148.823 127.86 170.606 123.648C192.313 119.451 208.186 109.388 212.036 93.9751L209.759 93.406ZM123.676 12.0774C152.407 20.2442 175.789 33.4812 191.048 48.271C206.343 63.0944 213.291 79.2681 209.759 93.406L212.036 93.9751C215.865 78.6527 208.24 61.6636 192.682 46.5851C177.09 31.473 153.342 18.0691 124.318 9.81913L123.676 12.0774ZM20.478 31.711C26.127 16.7871 43.0677 8.32091 63.3107 5.3937C83.4832 2.47668 106.485 5.14394 123.558 12.0368L124.437 9.85976C106.953 2.80118 83.5298 0.0978089 62.9748 3.07013C42.4903 6.03226 24.4009 14.7154 18.2823 30.8799L20.478 31.711ZM92.3953 115.764C63.6902 107.604 41.793 93.5932 29.0486 78.1115C16.3011 62.626 12.816 45.8491 20.4118 31.8555L18.3484 30.7355C10.1382 45.8611 14.1234 63.6745 27.236 79.6036C40.3519 95.5365 62.7047 109.765 91.7534 118.022L92.3953 115.764ZM193.92 69.9914C192.68 74.3541 189.499 77.6722 184.575 80.0066C179.627 82.3522 172.982 83.6676 165.012 83.9999C149.079 84.6643 128.172 81.3892 105.785 75.0256L105.143 77.2839C127.656 83.6831 148.831 87.0244 165.11 86.3456C173.245 86.0064 180.239 84.6604 185.581 82.128C190.946 79.5846 194.707 75.8082 196.178 70.6333L193.92 69.9914ZM123.248 13.7938C145.584 20.1427 164.657 29.7238 177.443 40.0352C183.837 45.1924 188.613 50.495 191.455 55.6216C194.294 60.7423 195.166 65.608 193.92 69.9914L196.178 70.6333C197.643 65.4792 196.548 59.9656 193.508 54.4832C190.472 49.0067 185.457 43.4827 178.916 38.2077C165.831 27.6547 146.454 17.9494 123.89 11.5355L123.248 13.7938ZM33.5828 24.4148C34.8288 20.0314 38.1296 16.3518 43.2377 13.4901C48.3516 10.6251 55.2023 8.62722 63.3535 7.60476C79.6511 5.56043 100.913 7.4448 123.248 13.7938L123.89 11.5355C101.326 5.12158 79.7409 3.18304 63.0613 5.27528C54.7239 6.3211 47.5532 8.38136 42.0902 11.4419C36.6214 14.5057 32.7896 18.6188 31.3245 23.7729L33.5828 24.4148ZM105.785 75.0256C83.3984 68.662 63.9219 60.458 50.7475 51.52C44.1572 47.0489 39.211 42.4388 36.2465 37.8445C33.2962 33.2721 32.3423 28.7788 33.5828 24.4148L31.3245 23.7729C29.8539 28.9465 31.0584 34.1342 34.2738 39.1174C37.4749 44.0785 42.7016 48.8984 49.4294 53.4628C62.8911 62.5957 82.631 70.8846 105.143 77.2839L105.785 75.0256Z" fill="#E5B14A" mask="url(#path-4-inside-2_5_8)"/>
<path d="M195.342 70.1163C183.249 94.0276 188.128 67.378 125.867 34.8508C72.3565 6.89489 9.49683 53.9776 37.6527 14.9969C50.2201 4.98925 90.1671 0.0406749 134.202 15.7983C177.098 31.1479 198.246 51.1658 195.342 70.1163Z" fill="#E2C78D"/>
</g>
<defs>
<clipPath id="clip0_5_8">
<rect width="212" height="152.837" fill="white"/>
</clipPath>
</defs>
</svg>
