<svg width="219" height="163" viewBox="0 0 219 163" fill="none" xmlns="http://www.w3.org/2000/svg">
    <rect x="42.9082" y="42.3327" width="21.3927" height="105.975" transform="rotate(-8.61452 42.9082 42.3327)" fill="#A8E5D5"/>
    <path d="M81.0991 139.152L77.5804 115.926C77.307 114.121 76.8421 112.977 76.1858 112.493C75.6245 111.995 74.3939 111.89 72.494 112.178L35.3032 117.812C27.7986 118.949 23.4778 115.765 22.3409 108.26L18.4552 82.6115C17.3183 75.1068 20.5021 70.786 28.0068 69.6491L85.4316 60.9496C92.9362 59.8126 97.257 62.9965 98.3939 70.5011L100.898 87.0304L73.3968 91.1967L71.1302 76.2349C70.8424 74.335 70.3775 73.1907 69.7355 72.8021C69.0792 72.3184 67.8486 72.2133 66.0437 72.4868L49.942 74.9261C48.042 75.2139 46.8503 75.686 46.3666 76.3423C45.9636 76.8893 45.906 78.1127 46.1939 80.0126L49.6046 102.527C49.8924 104.426 50.317 105.625 50.8783 106.123C51.5203 106.512 52.7912 106.562 54.6911 106.275L91.8818 100.64C99.3865 99.5035 103.707 102.687 104.844 110.192L108.838 136.553C109.975 144.058 106.791 148.379 99.2862 149.516L41.8614 158.215C34.3568 159.352 30.036 156.168 28.8991 148.664L26.395 132.134L53.8962 127.968L56.1628 142.93C56.4506 144.83 56.9227 146.022 57.579 146.505C58.221 146.894 59.4444 146.951 61.2493 146.678L77.351 144.239C79.2509 143.951 80.4024 143.533 80.8054 142.986C81.2891 142.33 81.387 141.052 81.0991 139.152Z" fill="#A8E5D5"/>
    <rect x="32.2842" y="9.78271" width="31.5261" height="33.7779" rx="5.62966" transform="rotate(-8.61452 32.2842 9.78271)" fill="#A8E5D5"/>
    <rect x="41.1875" y="8.43268" width="2.25186" height="139.693" transform="rotate(-8.61452 41.1875 8.43268)" fill="#A8E5D5"/>
    <rect x="47.8702" y="7.42181" width="2.25186" height="139.691" transform="rotate(-8.61452 47.8702 7.42181)" fill="#A8E5D5"/>
    <rect x="54.5481" y="6.40936" width="2.25186" height="139.723" transform="rotate(-8.61452 54.5481 6.40936)" fill="#A8E5D5"/>
    <path d="M128.759 125.926L152.251 125.978C154.076 125.982 155.278 125.696 155.856 125.121C156.433 124.642 156.724 123.442 156.728 121.52L156.811 83.905C156.827 76.3147 160.631 72.5279 168.221 72.5445L194.163 72.6014C201.753 72.6181 205.54 76.4215 205.523 84.0118L205.396 142.092C205.379 149.682 201.575 153.469 193.985 153.452L177.267 153.415L177.328 125.601L192.461 125.634C194.382 125.638 195.584 125.352 196.066 124.777C196.643 124.202 196.934 123.001 196.938 121.176L196.974 104.89C196.978 102.969 196.693 101.719 196.118 101.141C195.638 100.66 194.438 100.417 192.516 100.413L169.745 100.363C167.824 100.359 166.574 100.596 165.997 101.075C165.515 101.651 165.272 102.899 165.268 104.821L165.185 142.436C165.169 150.026 161.365 153.813 153.775 153.796L127.113 153.738C119.523 153.721 115.736 149.918 115.753 142.327L115.88 84.2476C115.897 76.6573 119.7 72.8705 127.29 72.8871L144.008 72.9238L143.947 100.739L128.815 100.706C126.893 100.701 125.643 100.987 125.066 101.562C124.584 102.137 124.341 103.338 124.337 105.163L124.302 121.449C124.297 123.37 124.535 124.572 125.014 125.053C125.589 125.631 126.838 125.922 128.759 125.926Z" fill="#A8E5D5"/>
    <rect x="95.3162" y="27.5527" width="8.55477" height="55.2293" rx="4.27738" transform="rotate(-43.7798 95.3162 27.5527)" fill="#A8E5D5"/>
    <rect x="214.59" y="25.1861" width="7.37949" height="47.6418" rx="3.68974" transform="rotate(53.4963 214.59 25.1861)" fill="#A8E5D5"/>
    <rect x="129.963" y="53.17" width="14.4553" height="14.4553" rx="7.22764" transform="rotate(16.2202 129.963 53.17)" fill="#A8E5D5"/>
    <rect x="170.7" y="50.3713" width="13.9918" height="13.9918" rx="6.99592" fill="#A8E5D5"/>
</svg>
