<svg width="81" height="80" viewBox="0 0 81 80" fill="none" xmlns="http://www.w3.org/2000/svg">
<g clip-path="url(#clip0_8_5)">
<path fill-rule="evenodd" clip-rule="evenodd" d="M40.6014 80C62.6935 80 80.6014 62.0908 80.6014 40C80.6014 17.9092 62.6936 0 40.6014 0C18.5093 0 0.601562 17.9091 0.601562 40C0.601562 62.0909 18.5096 80 40.6014 80Z" fill="#ED879F"/>
<path fill-rule="evenodd" clip-rule="evenodd" d="M66.4779 34.533C67.0003 32.8295 66.825 30.923 65.9137 28.9701C64.4166 25.7586 61.6094 24.1519 58.4089 24.5134C58.0886 22.9565 57.2038 21.4862 55.767 20.2145C52.9139 17.6898 49.411 17.4689 46.4858 19.5158C45.4771 18.0558 43.8803 17.013 41.7943 16.5121C38.3019 15.6738 35.2603 16.9113 33.5639 19.7205C32.0967 18.8909 30.2968 18.6267 28.2903 18.9805C24.5399 19.6414 22.2095 22.2513 21.9879 25.8109C20.2103 25.6849 18.3919 26.2845 16.6938 27.6109C13.7377 29.9201 12.865 33.2537 14.2498 36.457C12.6946 37.2231 11.4429 38.6089 10.6238 40.5386C9.00545 44.3511 10.2046 48.0294 13.6931 50.0895L14.5762 48.0106C12.1646 46.5446 11.4147 43.9758 12.5795 41.2331C13.8055 38.3443 16.771 37.217 20.295 38.7134L38.3774 46.177L38.4418 46.2577L38.4874 46.222L38.6858 46.3041L38.8361 45.9497L39.3516 45.5469L40.962 45.2624L40.9489 45.1909L41.8629 45.41L43.0868 46.4932L43.0945 46.4844L43.3408 47.0124L43.2557 48.6456L63.1649 49.4912C68.3029 49.7604 71.47 46.878 71.7145 42.2108C71.9142 38.408 69.8962 35.5501 66.4779 34.533ZM26.0379 30.7022L35.4735 42.535L21.1483 36.6223C19.4499 35.9008 17.8543 35.6547 16.4175 35.8247C15.1871 33.4429 15.7947 30.9415 18.0679 29.1651C20.5404 27.2339 23.6807 27.6866 26.0379 30.7022ZM35.0883 26.0966L38.0927 42.1969L27.7974 29.2874C26.6986 27.8802 25.4675 26.9114 24.1762 26.3534C24.099 23.5387 25.8414 21.515 28.773 20.9985C31.8634 20.4533 34.4239 22.3278 35.0883 26.0966ZM45.1903 25.7494L40.8494 44.657L37.3075 25.6739C36.9771 23.8003 36.2854 22.2886 35.3151 21.1654C36.4582 18.8959 38.7246 17.9046 41.4327 18.5548C44.4839 19.2879 46.0846 22.0274 45.1903 25.7494ZM54.4303 29.9658L43.6999 42.339L47.3951 26.2453C47.8119 24.5097 47.8035 22.9433 47.4367 21.5853C49.5907 19.7721 52.2595 19.8768 54.4891 21.8485C56.8384 23.9276 56.9664 27.0982 54.4303 29.9658ZM60.8003 37.3786L44.0347 45.4009L56.1422 31.4385C57.4971 29.9069 58.2595 28.3102 58.4775 26.7462C60.8662 26.3483 62.9514 27.5142 64.0906 29.9594C65.4165 32.8026 64.2688 35.7614 60.8003 37.3786ZM69.6402 42.2274C69.4766 45.361 67.0739 47.4335 63.2518 47.2334L46.8882 46.539L61.7835 39.4123C63.4016 38.6583 64.6222 37.6766 65.4567 36.5443C68.2171 37.1007 69.7967 39.255 69.6402 42.2274ZM25.3718 51.1422H23.2218V58.251L40.5598 52.6426L57.9943 58.249L57.9987 51.1706L55.8475 51.1681L55.8455 55.2985L40.558 50.3829L25.372 55.2961L25.3718 51.1422Z" fill="#FBE7EC"/>
</g>
<defs>
<clipPath id="clip0_8_5">
<rect width="81" height="80" fill="white"/>
</clipPath>
</defs>
</svg>
