<svg width="115" height="39" viewBox="0 0 115 39" fill="none" xmlns="http://www.w3.org/2000/svg">
<path fill-rule="evenodd" clip-rule="evenodd" d="M21.1658 1.07982H17.5602L11.1745 15.4475L4.78891 1.07982H1.15576L9.66067 19.9063H12.7158L21.1657 1.07983L21.1658 1.07982ZM27.469 1.07982H24.1662V19.7963H27.469V1.07982ZM39.3314 0.667142C35.1207 0.667142 32.3407 3.00674 32.3407 6.50235C32.3407 9.28198 33.9918 11.1263 37.625 11.8144L40.7079 12.42C42.8271 12.7776 43.4602 13.7412 43.4602 14.732C43.4602 16.3007 42.0838 17.2639 39.7994 17.2639C36.9922 17.2639 35.1754 15.888 34.8451 13.6858H31.5699C31.9003 17.7042 35.0103 20.1815 39.607 20.1815C43.9559 20.1815 46.8459 17.8419 46.8459 14.3463C46.8459 11.3462 44.809 9.91508 41.2307 9.19939L38.8639 8.73135C36.9095 8.34616 35.8362 7.65819 35.8362 6.22655C35.8362 4.52019 37.2945 3.50175 39.5518 3.50175C42.1115 3.50175 43.3502 4.7406 43.653 6.61215H46.9282C46.4878 2.09811 42.6346 0.666992 39.3315 0.666992V0.667112L39.3314 0.667142ZM54.3327 1.07982H51.0299V19.7963H54.3327V1.07982ZM73.7918 4.1351V1.07983H57.4702V4.1351H63.9933V19.7963H67.2961V4.1351H73.7918H73.7918Z" fill="#E31240"/>
<path fill-rule="evenodd" clip-rule="evenodd" d="M11.894 23.6807H9.3056V32.7291C9.3056 34.9111 8.08636 36.1514 6.43918 36.1514C4.81363 36.1514 3.57276 35.2747 3.44446 33.5846H0.856445C1.04886 36.7079 3.27359 38.5474 6.26801 38.5474C9.71195 38.5474 11.894 36.4937 11.894 32.8146V23.6805V23.6806L11.894 23.6807ZM22.2261 28.1087V28.8146C21.3916 28.2154 20.3437 27.8735 19.124 27.8735C16.3003 27.8735 14.0333 30.2262 14.0333 33.1783C14.0333 36.1087 16.3005 38.4619 19.124 38.4619C20.3437 38.4619 21.3917 38.1195 22.2261 37.5207V38.2267H24.6857V28.1086H22.2261V28.1087ZM19.4876 36.3227C17.7551 36.3227 16.4931 34.8467 16.4931 33.1783C16.4931 31.4883 17.7551 30.0123 19.4876 30.0123C20.536 30.0123 21.5199 30.3975 22.2261 31.4455V34.8894C21.52 35.9379 20.5361 36.3225 19.4876 36.3225V36.3227ZM31.9156 34.0767L35.0603 38.2268H38.2687L33.6272 32.3011L37.6911 28.1087H34.5467L30.0976 32.7075V23.0391H27.6376V38.2268H30.0976V35.9593L31.9156 34.0769V34.0768L31.9156 34.0767ZM49.7132 28.1087H47.2532V34.8039C46.4828 35.7667 45.5204 36.3014 44.6219 36.3014C43.0819 36.3014 42.1403 35.296 42.1403 33.5419V28.1087H39.6806V33.6915C39.6806 36.6224 41.4559 38.5475 44.1082 38.5475C45.3491 38.5475 46.3758 38.1194 47.2531 37.3711V38.2268H49.7131V28.1087H49.7132L49.7132 28.1087ZM58.1836 27.8735C56.9644 27.8735 55.916 28.2154 55.1032 28.8147V23.0391H52.6221V38.2268H55.1032V37.5208C55.9161 38.1196 56.9644 38.462 58.1836 38.462C61.0072 38.462 63.2744 36.1088 63.2744 33.1571C63.2744 30.2263 61.0071 27.8736 58.1836 27.8736V27.8735ZM57.8201 36.3227C56.7718 36.3227 55.8094 35.938 55.1033 34.9112V31.4028C55.8093 30.3975 56.7718 30.0124 57.8201 30.0124C59.574 30.0124 60.8149 31.4885 60.8149 33.1572C60.8149 34.8469 59.574 36.3228 57.8201 36.3228V36.3227ZM78.0128 30.6972C79.3393 30.248 80.1733 28.9427 80.1733 27.4667C80.1733 25.1351 78.3765 23.6807 75.3388 23.6807H68.5364V38.2267H75.5956C78.8256 38.2267 80.8577 36.6222 80.8577 34.2479C80.8577 32.5579 79.9594 31.0817 78.0128 30.697V30.6971L78.0128 30.6972ZM71.1038 25.9484H75.0397C76.8149 25.9484 77.7561 26.6328 77.7561 27.788C77.7561 29.0285 76.7721 29.82 74.9752 29.82H71.1038V25.9484ZM71.1038 35.9592V32.1305H75.5957C77.2641 32.1305 78.3338 32.7292 78.3338 33.9483C78.3338 35.0395 77.3926 35.9592 75.489 35.9592H71.1038ZM85.7349 28.1087H83.2537V38.2268H85.7349V31.9375C86.6122 30.8679 87.81 30.312 89.4141 30.248V27.9164C87.8741 27.9164 86.6548 28.4507 85.7349 29.3921V28.1087V28.1087ZM97.0933 27.7879C95.874 27.7879 94.8472 28.2155 93.9705 28.9427V28.1087H91.4889V38.2268H93.9705V31.4883C94.7406 30.5471 95.7029 30.0339 96.5801 30.0339C98.1201 30.0339 99.0613 31.0179 99.0613 32.7931V38.2268H101.521V32.6435C101.521 29.7131 99.7459 27.7879 97.0932 27.7879L97.0933 27.7878V27.7879ZM109.029 27.8735C105.949 27.8735 103.639 30.1196 103.639 33.1783C103.639 36.2588 105.949 38.5476 109.029 38.5476C112.088 38.5476 114.398 36.2588 114.398 33.1783C114.398 30.1196 112.089 27.8735 109.029 27.8735ZM109.029 36.3014C107.275 36.3014 106.099 34.911 106.099 33.1782C106.099 31.4671 107.275 30.1195 109.029 30.1195C110.762 30.1195 111.938 31.4671 111.938 33.1782C111.938 34.911 110.762 36.3014 109.029 36.3014Z" fill="#E31240"/>
</svg>
